#!OML:ASF F:\VICON\USERDATA\INSTALL\rory3\rory3.ASF
:FULLY-SPECIFIED
:DEGREES
157
root 1.21196 17.9061 -1.94107 -2.30104 -3.48516 1.64827
lowerback 10.2482 0.406969 -2.56242
upperback 0.461443 0.294132 0.956583
thorax -5.28884 0.218394 2.4022
lowerneck -17.7194 -2.47462 -1.32909
upperneck 19.8405 -3.19212 0.537954
head 9.19635 -1.53384 -0.0108969
rclavicle -4.47266e-016 1.59028e-015
rhumerus -33.5927 -17.36 -78.5274
rradius 27.0721
rwrist 3.15488
rhand -15.9129 20.8716
rfingers 7.12502
rthumb 10.2842 -8.85699
lclavicle -4.47266e-016 1.59028e-015
lhumerus -27.9418 -3.95898 81.2712
lradius 29.5653
lwrist 8.54916
lhand -28.3171 27.082
lfingers 7.12502
lthumb -1.69219 57.0551
rfemur -30.9568 -0.959777 22.2122
rtibia 50.1699
rfoot -11.2199 -10.3834
rtoes -2.97588
lfemur -0.9477 -1.09844 -26.1303
ltibia 26.9069
lfoot -18.2733 6.43342
ltoes -2.14712
158
root 1.20553 17.8857 -1.77859 -2.2067 -3.60158 1.86469
lowerback 10.1091 0.376619 -2.85915
upperback 0.585626 0.225019 0.976968
thorax -5.07768 0.186687 2.60086
lowerneck -17.537 -2.40855 -1.41144
upperneck 19.4867 -3.08341 0.572703
head 9.04184 -1.48737 0.0334342
rclavicle 1.86361e-015 -5.56597e-015
rhumerus -33.3685 -17.3881 -78.5369
rradius 26.8766
rwrist 3.3657
rhand -15.8013 21.4161
rfingers 7.12502
rthumb 10.3919 -8.30711
lclavicle 1.86361e-015 -5.56597e-015
lhumerus -27.6229 -4.1837 81.1749
lradius 30.1941
lwrist 8.81504
lhand -28.2973 29.8904
lfingers 7.12502
lthumb -1.67309 59.8635
rfemur -31.4756 -0.645541 21.9491
rtibia 47.8608
rfoot -10.6912 -10.8347
rtoes -2.83106
lfemur -0.508512 -1.37486 -26.4739
ltibia 26.2496
lfoot -17.937 6.65798
ltoes -1.29878
159
root 1.20165 17.879 -1.61368 -2.0845 -3.59068 2.03616
lowerback 10.0571 0.322195 -3.0131
upperback 0.593578 0.13572 0.959031
thorax -5.0347 0.145102 2.68172
lowerneck -17.6705 -2.35918 -1.51504
upperneck 19.6771 -3.00349 0.645544
head 9.13405 -1.44852 0.0828623
rclavicle -8.69683e-016 -1.15295e-014
rhumerus -33.4102 -17.3665 -78.542
rradius 26.725
rwrist 3.35109
rhand -15.6608 22.5132
rfingers 7.12502
rthumb 10.5274 -7.20317
lclavicle -8.69683e-016 -1.15295e-014
lhumerus -27.2485 -4.67118 81.0609
lradius 30.5743
lwrist 9.12218
lhand -27.7653 30.46
lfingers 7.12502
lthumb -1.15922 60.4366
rfemur -31.8424 -0.408445 21.6951
rtibia 45.4048
rfoot -10.2718 -11.4935
rtoes -1.74206
lfemur 0.564519 -1.43074 -26.7248
ltibia 25.5245
lfoot -18.1955 6.69418
ltoes -1.86592
160
root 1.19169 17.8881 -1.44453 -1.96651 -3.7223 2.07122
lowerback 10.0095 0.306856 -3.08274
upperback 0.558716 0.10921 0.971772
thorax -5.04297 0.134371 2.73818
lowerneck -17.4618 -2.37451 -1.68866
upperneck 19.5285 -3.02797 0.860971
head 9.05179 -1.4505 0.185221
rclavicle -4.5969e-015 -1.98785e-015
rhumerus -33.5318 -17.1993 -78.6361
rradius 26.5538
rwrist 3.51961
rhand -15.9661 22.6948
rfingers 7.12502
rthumb 10.2329 -7.03632
lclavicle -4.5969e-015 -1.98785e-015
lhumerus -26.8159 -5.13825 80.9276
lradius 30.8231
lwrist 9.64056
lhand -27.793 29.732
lfingers 7.12502
lthumb -1.18602 59.7085
rfemur -32.053 0.187117 21.5673
rtibia 42.824
rfoot -9.71787 -12.3446
rtoes -0.266873
lfemur 1.5292 -1.29314 -26.7716
ltibia 24.65
lfoot -18.206 6.83025
ltoes -3.04773
161
root 1.17973 17.8893 -1.27747 -1.92406 -3.78154 2.11328
lowerback 10.0468 0.281666 -3.15559
upperback 0.570423 0.066622 0.976565
thorax -5.04879 0.114999 2.79059
lowerneck -17.0536 -2.41983 -1.62165
upperneck 19.1157 -3.09 0.77102
head 8.83407 -1.48777 0.142886
rclavicle -9.98893e-015 -9.93923e-015
rhumerus -33.5758 -17.026 -78.7499
rradius 26.4413
rwrist 4.35338
rhand -16.9726 24.0235
rfingers 7.12502
rthumb 9.26177 -5.75309
lclavicle -9.98893e-015 -9.93923e-015
lhumerus -26.4221 -5.43592 80.7403
lradius 31.1314
lwrist 10.0045
lhand -27.8814 28.4199
lfingers 7.12502
lthumb -1.27136 58.3958
rfemur -32.0999 0.81077 21.3612
rtibia 40.1147
rfoot -8.804 -13.2585
rtoes 0.535934
lfemur 2.69217 -1.10466 -26.8333
ltibia 23.6788
lfoot -18.2851 6.89083
ltoes -3.0745
162
root 1.17104 17.8851 -1.10913 -1.7837 -3.83072 2.33683
lowerback 10.0408 0.260864 -3.37141
upperback 0.523441 0.0128278 0.951691
thorax -5.09111 0.0946284 2.89443
lowerneck -16.9742 -2.4269 -1.57761
upperneck 18.9585 -3.07427 0.606851
head 8.76221 -1.49584 0.0839397
rclavicle 5.96354e-015 1.19271e-015
rhumerus -33.7649 -17.1602 -78.6343
rradius 26.425
rwrist 5.48229
rhand -17.6519 25.3175
rfingers 7.12502
rthumb 8.60631 -4.48712
lclavicle 5.96354e-015 1.19271e-015
lhumerus -26.1289 -5.65618 80.636
lradius 31.413
lwrist 10.1755
lhand -27.1145 27.345
lfingers 7.12502
lthumb -0.530694 57.3241
rfemur -32.2662 1.29162 20.9284
rtibia 37.36
rfoot -8.17113 -14.034
rtoes 1.26311
lfemur 3.72584 -0.995068 -27.1255
ltibia 22.7246
lfoot -18.3098 7.01246
ltoes -3.21628
163
root 1.16156 17.8745 -0.933511 -1.64222 -4.0642 2.50373
lowerback 9.93402 0.319712 -3.58642
upperback 0.551651 0.0700288 0.937193
thorax -5.00641 0.125489 2.9921
lowerneck -17.2312 -2.33803 -1.43291
upperneck 19.0044 -2.96029 0.489899
head 8.81854 -1.44318 0.0314322
rclavicle 1.15047e-014 -4.37326e-015
rhumerus -33.7477 -17.3853 -78.578
rradius 26.0837
rwrist 5.52294
rhand -17.2618 24.4668
rfingers 7.12502
rthumb 8.98275 -5.32193
lclavicle 1.15047e-014 -4.37326e-015
lhumerus -25.6562 -5.95509 80.5046
lradius 31.4981
lwrist 10.2643
lhand -26.4151 26.7855
lfingers 7.12502
lthumb 0.144841 56.7652
rfemur -32.3907 1.95172 20.5535
rtibia 34.6203
rfoot -8.82841 -14.7596
rtoes 4.28568
lfemur 4.61301 -0.849064 -27.3351
ltibia 21.8872
lfoot -18.246 7.06696
ltoes -2.83519
164
root 1.15028 17.8626 -0.756084 -1.50898 -4.15923 2.5228
lowerback 9.78475 0.311629 -3.59626
upperback 0.646595 0.0648215 0.938565
thorax -4.82274 0.117905 2.99876
lowerneck -17.368 -2.29273 -1.36532
upperneck 18.8682 -2.90313 0.450358
head 8.79422 -1.41537 0.0134226
rclavicle -7.87684e-015 3.57812e-015
rhumerus -33.5328 -17.84 -78.5259
rradius 25.5654
rwrist 5.51216
rhand -16.6802 23.6258
rfingers 7.12502
rthumb 9.54388 -6.13803
lclavicle -7.87684e-015 3.57812e-015
lhumerus -25.1052 -6.07579 80.3138
lradius 31.7367
lwrist 9.96123
lhand -27.1312 26.928
lfingers 7.12502
lthumb -0.546799 56.907
rfemur -32.3996 2.58684 20.2491
rtibia 31.9257
rfoot -6.74774 -15.0371
rtoes -0.661088
lfemur 5.49341 -0.719736 -27.3457
ltibia 21.0459
lfoot -18.1419 6.94485
ltoes -2.17629
165
root 1.1372 17.8475 -0.586164 -1.43532 -4.13893 2.68637
lowerback 9.91141 0.302011 -3.72968
upperback 0.590285 0.0293404 0.891506
thorax -4.95015 0.106326 3.03068
lowerneck -17.1106 -2.32846 -1.39153
upperneck 18.6982 -2.94641 0.444987
head 8.69064 -1.43967 0.0146864
rclavicle -5.04416e-015 2.78299e-015
rhumerus -33.7165 -18.2421 -78.3499
rradius 25.3039
rwrist 5.86462
rhand -16.605 23.7817
rfingers 7.12502
rthumb 9.61643 -5.97883
lclavicle -5.04416e-015 2.78299e-015
lhumerus -24.7949 -6.50924 80.1916
lradius 32.0291
lwrist 9.90343
lhand -27.8173 26.964
lfingers 7.12502
lthumb -1.20943 56.9403
rfemur -32.3436 3.22118 19.7219
rtibia 29.3041
rfoot -5.73666 -15.2689
rtoes -2.66407
lfemur 6.4439 -0.551654 -27.4954
ltibia 20.139
lfoot -17.9675 6.81047
ltoes -3.49699
166
root 1.12433 17.8457 -0.412733 -1.36558 -3.99044 2.83277
lowerback 10.0082 0.232639 -3.84034
upperback 0.467679 -0.0816409 0.875807
thorax -5.12429 0.059673 3.09363
lowerneck -16.9939 -2.35205 -1.50463
upperneck 18.832 -2.9564 0.462389
head 8.71766 -1.45099 0.0383821
rclavicle -1.51822e-014 1.19271e-015
rhumerus -34.0139 -18.4853 -78.0933
rradius 24.9258
rwrist 6.27155
rhand -16.8061 23.8126
rfingers 7.12502
rthumb 9.42244 -5.95675
lclavicle -1.51822e-014 1.19271e-015
lhumerus -24.8452 -6.81437 80.1235
lradius 32.3676
lwrist 9.85565
lhand -28.1934 27.243
lfingers 7.12502
lthumb -1.57274 57.2169
rfemur -32.1914 3.82535 19.1661
rtibia 26.7534
rfoot -4.94703 -15.4406
rtoes -6.14696
lfemur 7.38909 -0.656454 -27.6378
ltibia 19.2721
lfoot -17.7469 6.52076
ltoes -3.34164
167
root 1.11318 17.8428 -0.229421 -1.42694 -3.73241 3.05626
lowerback 10.0214 0.101888 -4.03266
upperback 0.481339 -0.277986 0.870579
thorax -5.10048 -0.0334716 3.22489
lowerneck -17.0959 -2.30555 -1.53069
upperneck 19.0137 -2.86772 0.382008
head 8.79635 -1.41934 0.024093
rclavicle -1.07841e-014 -8.74653e-015
rhumerus -34.1253 -18.6335 -77.9451
rradius 24.589
rwrist 6.47874
rhand -17.1229 23.7741
rfingers 7.12502
rthumb 9.11674 -6.00884
lclavicle -1.07841e-014 -8.74653e-015
lhumerus -24.7306 -6.91029 80.0671
lradius 32.6153
lwrist 9.7906
lhand -28.4698 28.633
lfingers 7.12502
lthumb -1.83962 58.6048
rfemur -31.8386 4.54757 18.3773
rtibia 24.2837
rfoot -3.14246 -15.2795
rtoes -14.9403
lfemur 8.50279 -0.721584 -27.8423
ltibia 18.5112
lfoot -17.5989 6.13774
ltoes -1.7565
